<?xml version="1.0" encoding="UTF-8" standalone="no"?>
<!DOCTYPE svg PUBLIC "-//W3C//DTD SVG 1.1//EN" "http://www.w3.org/Graphics/SVG/1.1/DTD/svg11.dtd">
<svg width="100%" height="100%" viewBox="0 0 236 63" version="1.1" xmlns="http://www.w3.org/2000/svg" xmlns:xlink="http://www.w3.org/1999/xlink" xml:space="preserve" xmlns:serif="http://www.serif.com/" style="fill-rule:evenodd;clip-rule:evenodd;stroke-linejoin:round;stroke-miterlimit:2;">
    <g transform="matrix(1,0,0,1,-1492,-471)">
        <g transform="matrix(0.880597,0,0,0.59434,178.149,191.066)">
            <rect id="Plan-de-travail2" serif:id="Plan de travail2" x="1492" y="471" width="268" height="106" style="fill:none;"/>
            <g id="Plan-de-travail21" serif:id="Plan de travail2">
                <g transform="matrix(0.874322,0,0,1.29543,551.298,-539.241)">
                    <g transform="matrix(1.78619,0,0,1.78619,1078.63,802.725)">
                        <path d="M98.956,23.733L96.874,23.733L96.874,0.78L103.883,0.78C109.606,0.78 111.565,4.085 111.565,7.666C111.565,11.247 109.606,14.552 103.883,14.552L98.956,14.552L98.956,23.733ZM98.955,12.624L104.158,12.624C108.473,12.624 109.299,9.869 109.299,7.666C109.299,5.463 108.472,2.708 104.158,2.708L98.955,2.708L98.955,12.624ZM119.193,10.023C117.143,10.023 115.796,10.39 114.602,10.788L114.602,8.951C115.949,8.37 117.724,8.125 119.193,8.125C123.784,8.125 124.978,10.206 124.978,13.266L124.978,23.732L123.784,23.732L123.325,22.508C121.948,23.518 120.234,24.038 118.704,24.038C114.695,24.038 113.348,21.681 113.348,19.11C113.348,16.509 114.787,14.581 118.796,14.336L122.836,14.091L122.836,13.234C122.835,11.002 122.04,10.023 119.193,10.023ZM118.642,15.991C116.469,16.205 115.52,17.338 115.52,19.112C115.52,20.489 115.857,22.142 118.764,22.142C120.417,22.142 121.518,21.682 122.834,20.918L122.834,15.593L118.642,15.991ZM131.71,19.449C131.373,19.785 131.128,20.214 131.128,20.581C131.128,21.346 131.495,21.683 132.291,21.774L137.494,22.386C140.371,22.692 141.687,23.825 141.687,26.487C141.687,30.221 137.953,31.69 133.73,31.69C129.445,31.69 126.875,30.435 126.875,27.069C126.875,24.988 128.314,23.61 130.028,23.029L130.028,22.998C129.446,22.6 129.049,21.988 129.049,20.978C129.049,20.122 129.569,19.418 130.212,18.897C128.376,17.887 127.764,16.02 127.764,13.878C127.764,10.726 129.11,8.124 133.732,8.124C134.681,8.124 135.477,8.246 136.181,8.43L141.384,8.43L141.384,9.593L138.813,10.328C139.456,11.307 139.7,12.531 139.7,13.878C139.7,17.031 138.353,19.632 133.732,19.632C132.965,19.633 132.291,19.571 131.71,19.449ZM132.597,23.58C130.577,24.04 128.863,24.988 128.863,26.947C128.863,29.212 130.577,29.855 133.729,29.855C136.79,29.855 139.666,29.09 139.666,26.488C139.666,24.927 138.931,24.315 137.065,24.1L132.597,23.58ZM137.708,13.879C137.708,11.859 137.31,9.992 133.729,9.992C130.148,9.992 129.751,11.859 129.751,13.879C129.751,15.899 130.149,17.765 133.729,17.765C137.309,17.765 137.708,15.899 137.708,13.879ZM149.206,8.125C154.409,8.125 155.021,11.675 155.021,16.082L155.021,17.061L144.921,17.061C145.044,19.723 145.748,22.142 149.206,22.142C151.409,22.142 152.756,21.928 154.256,21.285L154.256,23.121C152.542,23.886 150.706,24.039 149.206,24.039C144.034,24.039 142.779,20.489 142.779,16.082C142.779,11.675 144.033,8.125 149.206,8.125ZM144.921,15.317L152.878,15.317C152.878,12.593 152.725,10.022 149.205,10.022C145.655,10.023 145.013,12.563 144.921,15.317ZM163.191,14.95C167.537,15.348 168.578,16.817 168.578,19.326C168.578,21.682 167.078,24.039 162.427,24.039C160.958,24.039 158.846,23.671 157.867,23.274L157.867,21.438C158.816,21.774 160.285,22.142 162.458,22.142C165.641,22.142 166.498,20.795 166.498,19.357C166.498,17.949 166.069,16.97 163.04,16.725C158.602,16.327 157.684,14.766 157.684,12.655C157.684,10.482 159.092,8.126 163.407,8.126C164.845,8.126 166.467,8.309 167.814,8.891L167.814,10.728C166.621,10.33 165.427,10.024 163.376,10.024C160.346,10.024 159.703,11.157 159.703,12.656C159.703,14.001 160.253,14.705 163.191,14.95ZM17.184,10.327L9.687,10.327C9.493,10.327 9.337,10.484 9.337,10.677L9.337,14.343C9.337,14.536 9.494,14.693 9.687,14.693L12.612,14.693L12.612,19.248C12.612,19.248 11.955,19.471 10.14,19.471C7.998,19.471 5.006,18.688 5.006,12.109C5.006,5.527 8.122,4.662 11.047,4.662C13.579,4.662 14.67,5.108 15.364,5.322C15.582,5.389 15.784,5.172 15.784,4.978L16.621,1.437C16.621,1.347 16.59,1.238 16.487,1.163C16.204,0.963 14.484,0 10.139,0C5.134,0 0,2.129 0,12.366C0,22.607 5.878,24.132 10.832,24.132C14.934,24.132 17.421,22.38 17.421,22.38C17.523,22.323 17.535,22.18 17.535,22.115L17.535,10.678C17.535,10.484 17.378,10.327 17.184,10.327ZM56.129,1.226C56.129,1.031 55.974,0.874 55.78,0.874L51.559,0.874C51.366,0.874 51.21,1.031 51.21,1.226C51.21,1.227 51.211,9.384 51.211,9.384L44.631,9.384L44.631,1.226C44.631,1.031 44.475,0.874 44.282,0.874L40.061,0.874C39.869,0.874 39.712,1.031 39.712,1.226L39.712,23.321C39.712,23.515 39.869,23.674 40.061,23.674L44.282,23.674C44.475,23.674 44.631,23.516 44.631,23.321L44.631,13.868L51.211,13.868C51.211,13.868 51.199,23.32 51.199,23.321C51.199,23.515 51.356,23.674 51.548,23.674L55.78,23.674C55.973,23.674 56.128,23.516 56.129,23.321L56.129,1.226ZM25.303,4.125C25.303,2.605 24.085,1.377 22.581,1.377C21.079,1.377 19.859,2.605 19.859,4.125C19.859,5.644 21.079,6.876 22.581,6.876C24.085,6.876 25.303,5.644 25.303,4.125ZM25.002,18.657L25.002,8.46C25.002,8.266 24.846,8.108 24.653,8.108L20.445,8.108C20.253,8.108 20.08,8.307 20.08,8.501L20.08,23.114C20.08,23.543 20.348,23.67 20.694,23.67L24.486,23.67C24.902,23.67 25.004,23.467 25.004,23.106C25.002,22.323 25.002,19.252 25.002,18.657ZM72.511,8.141L68.322,8.141C68.13,8.141 67.973,8.299 67.973,8.494L67.973,19.325C67.973,19.325 66.909,20.104 65.398,20.104C63.887,20.104 63.487,19.419 63.487,17.939L63.487,8.495C63.487,8.3 63.331,8.142 63.138,8.142L58.887,8.142C58.695,8.142 58.538,8.3 58.538,8.495L58.538,18.655C58.538,23.052 60.986,24.127 64.354,24.127C67.117,24.127 69.345,22.601 69.345,22.601C69.345,22.601 69.451,23.405 69.499,23.501C69.547,23.597 69.672,23.691 69.808,23.691L72.513,23.679C72.705,23.679 72.862,23.522 72.862,23.328L72.86,8.495C72.86,8.3 72.704,8.141 72.511,8.141ZM84.19,7.645C81.811,7.645 80.193,8.706 80.193,8.706L80.193,1.226C80.193,1.031 80.037,0.874 79.845,0.874L75.612,0.874C75.419,0.874 75.263,1.031 75.263,1.226L75.263,23.321C75.263,23.515 75.419,23.674 75.612,23.674L78.549,23.674C78.681,23.674 78.781,23.605 78.855,23.486C78.928,23.368 79.033,22.468 79.033,22.468C79.033,22.468 80.765,24.108 84.042,24.108C87.889,24.108 90.095,22.156 90.095,15.344C90.094,8.535 86.571,7.645 84.19,7.645ZM82.538,20.091C81.085,20.046 80.1,19.387 80.1,19.387L80.1,12.392C80.1,12.392 81.071,11.796 82.265,11.69C83.774,11.555 85.227,12.011 85.227,15.609C85.227,19.404 84.571,20.152 82.538,20.091ZM37.058,8.106L33.892,8.106C33.892,8.106 33.887,3.923 33.887,3.922C33.887,3.764 33.806,3.684 33.622,3.684L29.307,3.684C29.139,3.684 29.049,3.758 29.049,3.919L29.049,8.241C29.049,8.241 26.887,8.763 26.74,8.805C26.595,8.848 26.487,8.982 26.487,9.142L26.487,11.858C26.487,12.053 26.643,12.211 26.836,12.211L29.048,12.211L29.048,18.746C29.048,23.604 32.452,24.081 34.75,24.081C35.8,24.081 37.055,23.743 37.263,23.667C37.388,23.622 37.461,23.492 37.461,23.35L37.465,20.359C37.465,20.164 37.301,20.006 37.115,20.006C36.931,20.006 36.458,20.082 35.973,20.082C34.417,20.082 33.891,19.359 33.891,18.422C33.891,17.487 33.89,12.211 33.89,12.211L37.057,12.211C37.25,12.211 37.406,12.053 37.406,11.858L37.406,8.458C37.407,8.263 37.25,8.106 37.058,8.106Z" style="fill:white;fill-rule:nonzero;"/>
                    </g>
                    <g transform="matrix(0.396797,0,0,0.396797,720.031,484.472)">
                        <g transform="matrix(37.4164,0,0,37.4164,1484.18,779.075)">
                        </g>
                        <text x="1078.63px" y="779.075px" style="font-family:'Futura-Medium', 'Futura', sans-serif;font-weight:500;font-size:37.416px;fill:white;">PORFOLIO HOS<tspan x="1363.11px 1381.16px " y="779.075px 779.075px ">TE</tspan>D B<tspan x="1461.73px " y="779.075px ">Y</tspan></text>
                    </g>
                </g>
            </g>
        </g>
    </g>
</svg>
