<?xml version="1.0" encoding="UTF-8" standalone="no"?>
<!DOCTYPE svg PUBLIC "-//W3C//DTD SVG 1.1//EN" "http://www.w3.org/Graphics/SVG/1.1/DTD/svg11.dtd">
<svg width="100%" height="100%" viewBox="0 0 42 43" version="1.1" xmlns="http://www.w3.org/2000/svg" xmlns:xlink="http://www.w3.org/1999/xlink" xml:space="preserve" xmlns:serif="http://www.serif.com/" style="fill-rule:evenodd;clip-rule:evenodd;stroke-linejoin:round;stroke-miterlimit:2;">
    <g transform="matrix(1,0,0,1,-1909,-550)">
        <g transform="matrix(5.17896,0,0,0.998254,-7974.1,0.0140917)">
            <g transform="matrix(0.193089,0,0,1.00175,1539.71,-0.0141163)">
                <g id="LINKEDIN">
                    <path id="Linkedin" d="M1930.04,550.61C1941.59,550.61 1950.97,559.988 1950.97,571.539C1950.97,583.09 1941.59,592.468 1930.04,592.468C1918.49,592.468 1909.11,583.09 1909.11,571.539C1909.11,559.988 1918.49,550.61 1930.04,550.61ZM1941.85,557.167L1918.23,557.167C1917.12,557.155 1916.2,558.056 1916.18,559.165L1916.18,582.88C1916.2,583.989 1917.12,584.892 1918.23,584.88L1941.85,584.88C1942.96,584.894 1943.88,583.992 1943.9,582.88L1943.9,559.163C1943.88,558.052 1942.96,557.151 1941.85,557.166L1941.85,557.167ZM1922.35,565.747C1921.04,565.747 1919.97,564.671 1919.97,563.364C1919.97,562.057 1921.04,560.981 1922.35,560.981C1923.66,560.981 1924.73,562.057 1924.73,563.364C1924.73,564.671 1923.66,565.747 1922.35,565.747ZM1924.4,580.78L1920.29,580.78L1920.29,567.555L1924.4,567.555L1924.4,580.78ZM1939.8,580.78L1935.69,580.78L1935.69,574.349C1935.69,572.816 1935.67,570.841 1933.56,570.841C1931.42,570.841 1931.09,572.512 1931.09,574.237L1931.09,580.78L1926.99,580.78L1926.99,567.555L1930.93,567.555L1930.93,569.362L1930.98,569.362C1931.79,567.99 1933.28,567.167 1934.87,567.226C1939.04,567.226 1939.8,569.964 1939.8,573.525L1939.8,580.78Z" style="fill:white;"/>
                </g>
            </g>
        </g>
    </g>
</svg>
