<?xml version="1.0" encoding="UTF-8" standalone="no"?>
<!DOCTYPE svg PUBLIC "-//W3C//DTD SVG 1.1//EN" "http://www.w3.org/Graphics/SVG/1.1/DTD/svg11.dtd">
<svg width="100%" height="100%" viewBox="0 0 43 43" version="1.1" xmlns="http://www.w3.org/2000/svg" xmlns:xlink="http://www.w3.org/1999/xlink" xml:space="preserve" xmlns:serif="http://www.serif.com/" style="fill-rule:evenodd;clip-rule:evenodd;stroke-linejoin:round;stroke-miterlimit:2;">
    <g transform="matrix(1,0,0,1,-1999,-550)">
        <g transform="matrix(5.17896,0,0,0.998254,-7974.1,0.0140917)">
            <g id="Malt-Logo" serif:id="Malt Logo" transform="matrix(0.193089,0,0,1.00175,1539.71,-0.0141163)">
                <path d="M2020.5,550.61C2032.05,550.61 2041.43,559.988 2041.43,571.539C2041.43,583.09 2032.05,592.468 2020.5,592.468C2008.95,592.468 1999.57,583.09 1999.57,571.539C1999.57,559.988 2008.95,550.61 2020.5,550.61ZM2030.83,561.212C2028.64,559.021 2026.3,560.439 2024.83,561.904L2017.91,568.824L2011,575.744C2009.53,577.209 2008,579.435 2010.3,581.741C2012.61,584.048 2014.84,582.514 2016.3,581.049L2023.22,574.129L2030.14,567.21C2031.61,565.744 2033.02,563.403 2030.83,561.212ZM2022.86,577.107L2021.85,578.119L2024.83,581.102C2026.3,582.567 2028.64,583.985 2030.83,581.794C2032.47,580.158 2032.09,578.441 2031.19,577.065C2030.89,577.086 2022.86,577.107 2022.86,577.107ZM2032.01,567.9C2031.83,568.108 2024.72,575.252 2024.72,575.252L2030.29,575.252C2032.36,575.252 2035.02,574.763 2035.02,571.501C2035.02,569.109 2033.59,568.21 2032.01,567.9ZM2018.22,565.895L2019.23,564.886L2016.3,561.957C2014.83,560.492 2012.61,558.958 2010.3,561.265C2008.61,562.956 2008.99,564.602 2009.88,565.938C2010.16,565.918 2018.22,565.895 2018.22,565.895ZM2017.61,560.645L2020.54,563.576L2023.52,560.593C2023.73,560.39 2023.93,560.202 2024.14,560.024C2023.83,558.448 2022.93,557.023 2020.54,557.023C2018.15,557.023 2017.25,558.454 2016.94,560.033C2017.16,560.226 2017.38,560.42 2017.61,560.645ZM2016.37,567.749L2010.72,567.749C2008.64,567.749 2005.99,568.402 2005.99,571.501C2005.99,573.813 2007.47,574.762 2009.08,575.096C2009.27,574.876 2016.37,567.749 2016.37,567.749ZM2023.52,582.413L2020.54,579.432L2017.61,582.36C2017.39,582.583 2017.17,582.786 2016.95,582.977C2017.28,584.584 2018.23,586.056 2020.54,586.056C2022.85,586.056 2023.8,584.576 2024.13,582.964C2023.93,582.788 2023.72,582.615 2023.52,582.413Z" style="fill:white;"/>
            </g>
        </g>
    </g>
</svg>
